<svg width="1441" height="126" xmlns="http://www.w3.org/2000/svg"><path d="M88.223.226l-.18 2.704.859.669 70.46 54.146 1.186-.453-.488.991.286.218-.164.065.377.288-.958.367-16.547 33.675-1.053.402-.002.005-.004-.002-74.084 28.342h-.002l-.42.161-1.576.602.001-.001-.245.093-1.489 3.032.169-2.528-.674.257.758-1.544 5.62-84.39-.089-.068 16.59-33.765.07-1.051.325.248.216-.442.047.037L88.223.226zm-3.122 47.361l33.193 25.836 38.4-14.892-30.228-23.527L87.652 5.379l-.067 1.015.78.065L85.1 47.587zM71.316 37.261l11.978 9.307 2.575-38.882-14.553 29.575zm-.311 1.128l-5.098 79.78 13.748-28.3.53-1.093 1.903-24.595 1.04-16.27-12.123-9.522zm12.77 26.077l-1.507 22.763 34.341-13.307L84.98 49.338l-1.205 15.128zm35.934 9.854l21.339 16.761 14.925-30.713L119.71 74.32zM83.793 88.438l-15.598 31.394 71.62-27.245-22.122-17.044-33.9 12.895zM67.76 118.371l-1.383 2.761.247-.092 15.958-31.836-.246.092-14.576 29.075z" fill="#DFE5EB" fill-rule="evenodd"/></svg>