<svg width="712" height="400" xmlns="http://www.w3.org/2000/svg" xmlns:xlink="http://www.w3.org/1999/xlink"><defs><linearGradient x1="100%" y1="100%" x2="0%" y2="0%" id="c"><stop stop-color="#232E3B" stop-opacity=".8" offset="0%"/><stop stop-color="#232E3B" offset="100%"/></linearGradient><rect id="b" width="83" height="80" rx="2"/><filter x="-67.5%" y="-50%" width="234.9%" height="240%" filterUnits="objectBoundingBox" id="a"><feOffset dy="16" in="SourceAlpha" result="shadowOffsetOuter1"/><feGaussianBlur stdDeviation="16" in="shadowOffsetOuter1" result="shadowBlurOuter1"/><feColorMatrix values="0 0 0 0 0.137254902 0 0 0 0 0.180392157 0 0 0 0 0.231372549 0 0 0 0.32 0" in="shadowBlurOuter1"/></filter><path d="M48 40a.999.999 0 0 0-.427-.82l-10-7A1 1 0 0 0 36 33V47a.999.999 0 0 0 1.573.82l10-7A.995.995 0 0 0 48 40V40c0 .001 0 .001 0 0z" id="e"/><filter x="-466.7%" y="-250%" width="1033.3%" height="800%" filterUnits="objectBoundingBox" id="d"><feOffset dy="16" in="SourceAlpha" result="shadowOffsetOuter1"/><feGaussianBlur stdDeviation="16" in="shadowOffsetOuter1" result="shadowBlurOuter1"/><feComposite in="shadowBlurOuter1" in2="SourceAlpha" operator="out" result="shadowBlurOuter1"/><feColorMatrix values="0 0 0 0 0.062745098 0 0 0 0 0.0862745098 0 0 0 0 0.254901961 0 0 0 0.24 0" in="shadowBlurOuter1"/></filter></defs><g fill="none" fill-rule="evenodd"><rect fill="#FFF" width="712" height="400" rx="2"/><g transform="translate(316 160)"><use fill="#000" filter="url(#a)" xlink:href="#b"/><use fill="url(#c)" xlink:href="#b"/></g><g transform="translate(316 160)"><use fill="#000" filter="url(#d)" xlink:href="#e"/><use fill-opacity=".99" fill="#FFF" xlink:href="#e"/></g></g></svg>